<?xml version="1.0" encoding="utf-8"?>
<!-- Generator: Adobe Illustrator 28.2.0, SVG Export Plug-In . SVG Version: 6.00 Build 0)  -->
<svg version="1.1" id="Camada_1" xmlns="http://www.w3.org/2000/svg" xmlns:xlink="http://www.w3.org/1999/xlink" x="0px" y="0px"
	 viewBox="0 0 1080 1080" style="enable-background:new 0 0 1080 1080;" xml:space="preserve">
<style type="text/css">
	.st0{fill:#7B68EE;}
	.st1{fill:url(#SVGID_1_);}
	.st2{fill:url(#SVGID_00000041276337539055168010000003684236553689797299_);}
	.st3{fill:#7B15EE;}
	.st4{fill:#FFFFFF;}
</style>
<g>
	<g>
		<path class="st0" d="M888.57,804.78L595.02,974.26c-34.05,19.66-75.99,19.66-110.04,0L191.43,804.78
			c-34.05-19.66-55.02-55.98-55.02-95.3V370.52c0-39.31,20.97-75.64,55.02-95.3l293.55-169.48c34.05-19.66,75.99-19.66,110.04,0
			l293.55,169.48c34.05,19.66,55.02,55.98,55.02,95.3v338.96C943.59,748.79,922.61,785.12,888.57,804.78z"/>
		<linearGradient id="SVGID_1_" gradientUnits="userSpaceOnUse" x1="136.4118" y1="685.8907" x2="540.3367" y2="685.8907">
			<stop  offset="0" style="stop-color:#7B15EE"/>
			<stop  offset="0.9" style="stop-color:#BF15EE"/>
		</linearGradient>
		<path class="st1" d="M540.34,745.99c0-185.19-150.12-335.31-335.31-335.31c-23.53,0-46.46,2.49-68.62,7.12v291.68
			c0,39.31,20.97,75.64,55.02,95.3L462.19,961.1C510.95,902.87,540.34,827.88,540.34,745.99z"/>
		
			<linearGradient id="SVGID_00000061449109766724863970000003949998407086599861_" gradientUnits="userSpaceOnUse" x1="312.3174" y1="312.4336" x2="943.5881" y2="312.4336">
			<stop  offset="0" style="stop-color:#7B15EE"/>
			<stop  offset="0.9" style="stop-color:#BF15EE"/>
		</linearGradient>
		<path style="fill:url(#SVGID_00000061449109766724863970000003949998407086599861_);" d="M888.57,275.22L595.02,105.74
			c-34.05-19.66-75.99-19.66-110.04,0l-172.66,99.69C383.66,397.22,568.36,533.87,785,533.87c55.41,0,108.71-8.96,158.58-25.48
			V370.52C943.59,331.21,922.61,294.88,888.57,275.22z"/>
		<path class="st3" d="M840.67,591.13c-100.14,0-181.32,81.18-181.32,181.32c0,51.95,21.88,98.77,56.89,131.82l172.32-99.49
			c34.05-19.66,55.02-55.99,55.02-95.3v-86.29C914.35,602.99,878.9,591.13,840.67,591.13z"/>
	</g>
	<path class="st4" d="M823.48,493.39V367.45L610.17,244.3L540,284.81l-70.17-40.51l-213.3,123.15v345.11l213.3,123.15L540,795.19
		l70.17,40.51l213.3-123.15V586.61h-103v67.67L540,758.48l-180.48-104.2V425.72L540,321.52l180.48,104.2v67.67H823.48z
		 M752.27,672.64V618.4h39.41v75.8L610.17,798.99l-38.38-22.16L752.27,672.64z M327.73,407.37v265.27l180.48,104.2l-38.38,22.16
		L288.32,694.2V385.8l181.51-104.79l38.38,22.16L327.73,407.37z M571.79,303.17l38.38-22.16L791.68,385.8v75.79h-39.41v-54.23
		L571.79,303.17z"/>
</g>
</svg>
